<?xml version="1.0" encoding="UTF-8" standalone="no"?>
<!-- Created with Inkscape (http://www.inkscape.org/) -->
<svg xmlns:inkscape="http://www.inkscape.org/namespaces/inkscape" xmlns:rdf="http://www.w3.org/1999/02/22-rdf-syntax-ns#" xmlns="http://www.w3.org/2000/svg" xmlns:xlink="http://www.w3.org/1999/xlink" xmlns:ns1="http://sozi.baierouge.fr" xmlns:cc="http://creativecommons.org/ns#" xmlns:sodipodi="http://sodipodi.sourceforge.net/DTD/sodipodi-0.dtd" xmlns:dc="http://purl.org/dc/elements/1.1/" id="svg2" xml:space="preserve" viewBox="0 0 286.85 156.09" version="1.1" inkscape:version="0.91 r13725">
  <defs id="defs6">
    <linearGradient id="linearGradient30" y2="-6.2241" gradientUnits="userSpaceOnUse" x2="326.39" gradientTransform="matrix(.71912 -.35048 -.35048 -.71912 -.019022 124.86)" y1="-6.2241" x1="62.764">
      <stop id="stop32" style="stop-color:#e7e7e8" offset="0"/>
      <stop id="stop34" style="stop-color:#c3ced9" offset="1"/>
    </linearGradient>
    <linearGradient id="linearGradient50" y2="73.198" gradientUnits="userSpaceOnUse" x2="203.55" gradientTransform="matrix(.79152 -.116 -.116 -.79152 -.019132 124.86)" y1="73.198" x1="24.181">
      <stop id="stop52" style="stop-color:#dddfe0" offset="0"/>
      <stop id="stop54" style="stop-color:#c8d4e0" offset="1"/>
    </linearGradient>
    <linearGradient id="linearGradient68" y2="11.622" gradientUnits="userSpaceOnUse" x2="203.38" gradientTransform="matrix(.79152 -.116 -.116 -.79152 -.019153 124.86)" y1="11.622" x1="24.191">
      <stop id="stop70" style="stop-color:#dddfe0" offset="0"/>
      <stop id="stop72" style="stop-color:#c8d4e0" offset="1"/>
    </linearGradient>
    <clipPath id="clipPath80">
      <path id="path82" d="m179.22 92.097 2.043-1.563c0.64-0.453 2.718-1.718 6.238-3.8 2.535-1.493 4.48-2.907 5.84-4.239 0.961-0.933 1.976-2.16 3.043-3.679 1.492-2.188 2.398-3.481 2.718-3.879 0.532-0.668 2.825-2.481 6.879-5.442 3.254-2.375 4.989-4.453 5.2-6.238l-0.278 0.039 0.918-1.801 0.082-0.121 0.239-0.679v-0.04l0.519-2.32v-0.121l0.281-1.641v-0.078l0.321-1.601c0.933-3.758 2.57-7.614 4.918-11.559 0.425-0.746 0.961-1.867 1.601-3.359 0.692-1.547 1.227-2.668 1.598-3.36 0.375-0.695 1.082-1.683 2.121-2.961 1.016-1.253 1.707-2.226 2.082-2.921 0.531-0.985 1.051-2.438 1.559-4.36 0.558-2.183 1.011-3.679 1.359-4.48 0.988-2.399 1.226-4.106 0.719-5.117-0.453-0.934-1.907-1.989-4.36-3.161-3.84-1.839-7.679-3.226-11.519-4.16-5.625-1.386-9.492-2.492-11.602-3.32-3.117-1.199-7.199-1.785-12.238-1.758-7.629 0.024-11.828 0-12.602-0.082-2.05-0.187-5.238-0.894-9.558-2.121-4.106-1.145-7.254-1.773-9.442-1.879-3.57-0.187-5.679-0.281-6.316-0.281-2.481-0.051-4.59 0.027-6.32 0.242l-0.602 0.078c-1.199 0.188-3.293 0.774-6.281 1.762l-4.52 1.32-1.238 0.199h-0.32c-0.403 0.079-0.828 0.118-1.282 0.118l-9.64-0.278c-0.453-0.054-0.918-0.054-1.399 0l-1.882 0.039-0.04 0.039-2.558 0.282-2.481 0.679-1.601 0.719-1.039 0.68c-0.426 0.269-0.746 0.535-0.961 0.801l-0.52 0.519-0.398 0.52c-0.375 0.535-0.652 1.066-0.84 1.601l-12.84 2.039c-0.082 0-0.988 0.094-2.722 0.281-1.094 0.079-2.012 0.254-2.758 0.52l-1.039 0.398-0.203 0.122c-1.094 0.48-2.704 1.293-4.84 2.441l-2.918 1.078-1.641 0.281-3.199-0.039-0.199-0.043-0.68-0.078-0.16-0.039-0.762-0.082c-1.121-0.187-2.465-0.492-4.039-0.918-0.906-0.242-2.187-0.574-3.84-1-5.336-1.336-10.105-1.801-14.32-1.402-7.629 0.695-15.496 4.121-23.602 10.281-1.199 0.906-2.84 1.746-4.918 2.52-2.375 0.851-4.015 1.558-4.922 2.121-0.187 0.078-0.492 0.277-0.917 0.597l-0.282 0.2-1.679 1.562-6.559 8-1.359 1.16-0.121 0.078-0.559 0.442c-1.387 0.961-2.43 1.695-3.121 2.199-1.176 0.883-2 1.68-2.481 2.402-0.718 1.067-1.027 2.024-0.922 2.879 0.083 0.481 0.481 1.469 1.204 2.961 0.398 0.852 1.132 2.106 2.199 3.758 1.094 1.707 1.851 2.988 2.277 3.84 0.242 0.48 1.094 2.48 2.563 6 1.011 2.429 2.039 4.375 3.078 5.84 1.254 1.734 2 2.773 2.242 3.121 0.664 1.066 1.211 2.226 1.641 3.48 0.343 0.988 0.785 2.895 1.32 5.719 0.476 2.453 1.023 4.336 1.637 5.641 0.535 1.121 1.562 2.8 3.082 5.039 1.437 2.109 2.437 3.839 3 5.203 0.48 1.144 1.039 3.785 1.679 7.918 0.559 3.492 1.36 5.949 2.399 7.359 1.121 1.492 3.16 2.883 6.121 4.16 2.641 1.094 5.039 1.762 7.199 2 1.922 0.215 4.668 0.321 8.242 0.321 3.84 0 6.586 0.066 8.239 0.199 1.625 0.136 3.933 0.187 6.921 0.16 3.145 0 5.438 0.043 6.879 0.121 2.133-0.027 3.868-0.039 5.2-0.039 2.558 0.027 4.242 0.266 5.039 0.719 1.093 0.718 1.828 1.187 2.203 1.402 0.558 0.293 1.476 0.465 2.758 0.52 2.105 0.078 4.906 0.371 8.402 0.878 4.078 0.586 6.863 0.946 8.359 1.079 2.453 0.242 4.813 0.16 7.078-0.239 1.309-0.215 3.563-0.773 6.762-1.679 5.758-1.653 13.145-3.336 22.16-5.039 4.453-0.586 7.84-1.043 10.16-1.364 4.211-0.586 7.504-1.437 9.879-2.558 1.067-0.508 2.106-1.321 3.121-2.442 0.586-0.664 1.415-1.691 2.481-3.078 1.57-1.867 3.73-4.695 6.476-8.48 2.536-3.305 4.922-5.895 7.161-7.758z" inkscape:connector-curvature="0"/>
    </clipPath>
    <clipPath id="clipPath88">
      <path id="path90" d="m0.023998 23.87h287.5v156.25h-287.5v-156.25z" inkscape:connector-curvature="0"/>
    </clipPath>
    <radialGradient id="radialGradient92" gradientUnits="userSpaceOnUse" cy="90.05" cx="112.5" r="174">
      <stop id="stop94" style="stop-color:#ffffff;stop-opacity:.35689" offset="0"/>
      <stop id="stop96" style="stop-color:#ffffff;stop-opacity:.71760" offset="1"/>
    </radialGradient>
    <mask id="mask98">
      <g id="g100">
        <g id="g102" clip-path="url(#clipPath88)">
          <path id="path104" style="fill:url(#radialGradient92)" d="m0.023998 23.87h287.5v156.25h-287.5v-156.25z" inkscape:connector-curvature="0"/>
        </g>
      </g>
    </mask>
    <radialGradient id="radialGradient108" gradientUnits="userSpaceOnUse" cy="90.05" cx="112.5" r="174">
      <stop id="stop110" style="stop-color:#ffffff" offset="0"/>
      <stop id="stop112" style="stop-color:#a8b9c9" offset="1"/>
    </radialGradient>
  </defs>
  <g id="g10" transform="matrix(1.25 0 0 -1.25 0 156.09)">
    <g id="g12">
      <path id="path14" style="fill-rule:evenodd;fill:#ced1d6" d="m212.38 59.495c0.109-0.48 0.281-1.465 0.523-2.961-0.187-0.027-0.386-0.132-0.601-0.316-0.348 0.531-0.629 1.039-0.84 1.516-0.293-0.184-0.641-0.731-1.039-1.637-0.375-0.934-0.844-1.563-1.402-1.883-0.665-0.371-1.454-0.437-2.36-0.199-1.039 0.348-1.84 0.574-2.398 0.68-0.16 0.027-0.414 0.039-0.762 0.039-0.055-1.864-0.055-3.145 0-3.84 0.105-1.387 0.414-2.598 0.922-3.637 0.719-1.469 1.156-2.48 1.316-3.043 0.403-1.226 0.442-2.332 0.121-3.32-0.32-1.039-1.093-1.664-2.32-1.879-1.094-0.188-2.133 0-3.117 0.558-0.777 0.43-1.52 1.215-2.242 2.36-0.719 1.387-1.239 2.375-1.559 2.961-0.855 1.469-1.48 2.586-1.883 3.359-0.718 1.363-1.16 2.563-1.316 3.602-0.188 1.093-0.16 2.625 0.078 4.601 0.266 2.106 0.348 3.637 0.242 4.598-0.082 1.121-0.176 2.016-0.281 2.68-0.215 1.199-0.586 2.015-1.121 2.441-0.774 0.641-2.184 1.055-4.238 1.238-2.508 0.27-4.043 0.496-4.602 0.68-1.441 0.535-2.945 1.43-4.52 2.68-1.785 1.55-3.148 2.707-4.078 3.48-1.789 1.762-3.269 3.176-4.441 4.242-2.188 2.028-3.856 3.121-5 3.278-0.348-0.532-1.082-1.133-2.199-1.797-1.336-0.801-2.16-1.36-2.481-1.68-0.828-0.828-1.441-1.523-1.84-2.082-0.507-0.801-0.839-1.652-1-2.559-0.082-0.425-0.121-1.679-0.121-3.761 0-1.52-0.254-2.735-0.761-3.641-0.719-1.277-1.625-2.504-2.719-3.68-1.305-1.359-2.465-2.144-3.481-2.359-1.519-0.32-3.57-0.441-6.16-0.359-1.304 0.05-3.371 0.199-6.199 0.441-0.055 0.586-0.055 1.731 0 3.438 0.426 0.402 1.066 1.132 1.922 2.199 0.824 1.094 1.359 1.922 1.598 2.48 0.375 0.828 0.574 1.789 0.601 2.883-0.133 2.266-0.226 4.012-0.281 5.238-0.082 2.188 0.16 3.84 0.719 4.961h-1.36v1.399c0.082 0.668 0.375 1.133 0.879 1.402 0.293 0.184 0.922 0.332 1.883 0.438 0.828 0.105 1.48 0.375 1.961 0.8 1.172 1.067 2.144 2.973 2.918 5.719 0.988 3.469 1.668 5.563 2.039 6.281 0.695 1.332 1.613 2.348 2.762 3.039 1.332 0.801 2.613 0.934 3.839 0.403 1.575-1.574 3.149-2.961 4.719-4.16 1.789-1.414 3.227-2.614 4.321-3.602 0.8-0.586 1.332-0.918 1.601-1 0.238-0.055 0.918-0.094 2.039-0.121h8.481c0.214-0.184 0.425-0.359 0.64-0.52l0.199-0.16c0.106-0.05 0.2-0.117 0.282-0.199l0.957-0.68c0.64-0.453 2.722-1.718 6.242-3.8 2.531-1.493 4.48-2.907 5.84-4.239 0.961-0.933 1.972-2.16 3.039-3.679 1.492-2.188 2.402-3.481 2.719-3.883 0.535-0.664 2.828-2.477 6.882-5.438 3.254-2.375 4.985-4.453 5.2-6.242l-0.282 0.043 0.121-0.203c0.481-0.746 0.868-1.586 1.161-2.52l0.117-0.558c0.027-0.051 0.043-0.106 0.043-0.16 0.027-0.051 0.054-0.172 0.078-0.36zm-80.078 5.922c-0.668-0.429-1.242-0.734-1.719-0.922 0.16 0.239 0.051 0.535-0.32 0.879 0.8-0.051 1.48-0.039 2.039 0.043zm-121.32-29.961c-1.226 1.574-2.292 2.719-3.199 3.438-0.32 0.297-0.746 0.613-1.281 0.961l-0.039 0.121c1.441 0 2.254 0.012 2.441 0.039 0.879 0.105 1.571 0.426 2.078 0.961 0.536 0.531 0.989 1.398 1.36 2.597 0.293 0.961 0.496 1.934 0.601 2.922 0.161 1.414 0.012 3.465-0.441 6.16-0.48 2.692-0.625 4.747-0.438 6.161 1.946 0.211 3.946 0.011 6-0.602 1.598-0.48 3.465-1.293 5.598-2.441 1.867-1.012 3.563-2.438 5.082-4.278 1.305-1.574 3-2.722 5.078-3.441 1.492-0.508 3.559-0.867 6.2-1.082 4.562-0.399 8.496-0.399 11.8 0 0.989 0.109 2.293 0.574 3.922 1.402 1.598 0.801 2.906 1.239 3.918 1.321 1.52 0.105 3.785 0.105 6.801 0 3.066-0.11 5.332-0.122 6.801-0.043 0.824 0.054 2.453 0.293 4.879 0.722 2.054 0.371 3.64 0.52 4.761 0.438-0.453-0.934-0.988-1.707-1.601-2.321-0.481-0.453-1.254-1.011-2.321-1.679-0.851-0.559-2.824-1.985-5.918-4.282-2.402-1.757-4.457-3.089-6.16-4-1.386-0.746-2.226-1.304-2.523-1.679-0.426-0.508-0.652-1.426-0.68-2.758 0-0.773 0.082-1.879 0.242-3.32 0.161-1.493 0.239-2.586 0.239-3.282 0-1.464-1.106-2.707-3.321-3.718-1.226-0.559-3-1.321-5.32-2.282-1.703-1.117-3.863-1.785-6.477-2-1.523-0.105-3.867-0.05-7.042 0.161-2.372 0.187-4.481 0.402-6.321 0.64 4.613 0.481 8.016 0.934 10.203 1.36 3.891 0.746 6.598 2.347 8.118 4.8 0.402 0.614 0.882 1.946 1.441 4 0.398 1.465 1.172 2.602 2.32 3.399 1.946 1.336 3.387 2.562 4.321 3.679 1.492 1.79 2.027 3.536 1.597 5.243-1.972 0.531-4.57 0.691-7.797 0.48-1.789-0.105-4.414-0.281-7.882-0.519-1.332-0.028-2.864 0.082-4.598 0.32-0.934 0.105-2.453 0.348-4.563 0.719-1.73 0.293-3.347 0.972-4.839 2.039-1.68 1.441-3 2.562-3.958 3.359 0.293-1.09 0.84-2.398 1.637-3.918 0.801-1.547 1.574-2.746 2.321-3.601 0.668-0.719 1.976-1.465 3.921-2.239 1.895-0.695 3.121-1.425 3.68-2.199 0.668-0.855 0.828-2.043 0.481-3.562-0.266-1.305-0.762-2.414-1.481-3.321-1.441-1.73-3.254-2.984-5.441-3.758-4.985-1.757-9.36-0.332-13.118 4.282-0.667 0.824-1.136 1.453-1.402 1.879-0.293 0.535-0.598 1.254-0.918 2.16-0.054 0.133-0.23 0.922-0.519 2.359-0.243 1.039-0.524 1.746-0.844 2.121-0.746-0.695-1.918-1.402-3.52-2.121-2.238-1.012-3.531-1.613-3.879-1.797z" inkscape:connector-curvature="0"/>
      <path id="path16" style="fill-rule:evenodd;fill:#abb5c0" d="m144.62 0.335c-1.176 0.188-2.547 0.547-4.121 1.082-0.852 0.238-2.078 0.641-3.68 1.199-0.05 0.028-0.093 0.039-0.117 0.039-0.082 0.028-0.16 0.055-0.242 0.083 1.68 0.05 2.973 0.265 3.879 0.64 2.055 0.824 3.683 2.863 4.883 6.117 1.093 3.016 1.425 5.653 1 7.922-4.856-2-8.028-3.254-9.52-3.762-0.16-0.05-0.695-0.214-1.601-0.48l0.718 0.32c1.496 0.774 3.735 1.989 6.723 3.641 2.16 1.039 3.863 1.934 5.117 2.68 2.32 1.414 3.652 2.8 4 4.16 0.055 0.187 0.082 0.574 0.082 1.16 0.028 0.559 0.094 1 0.199 1.32 0.481 1.36 0.762 2.481 0.84 3.36 0.082 0.773 0.067 1.707-0.039 2.8-0.082 0.985-0.441 1.825-1.082 2.52-0.851 0.797-1.519 1.519-2 2.16-1.117 1.465-1.773 3.266-1.957 5.399v6.039c0.078 1.043 0.117 1.867 0.117 2.48 0.028 1.094-0.132 1.84-0.48 2.242-0.453 0.559-1.25 0.867-2.399 0.918-0.64 0-1.546-0.039-2.718-0.117-3.684 0-5.657 0.012-5.922 0.039-2.211 0.106-4.121 0.52-5.719 1.238-0.828 0.375-2.293 0.907-4.402 1.602-1.864 0.668-3.2 1.398-4 2.199-0.692 0.695-1.289 1.16-1.797 1.399-0.375 0.16-1.121 0.429-2.242 0.8-0.692 0.243-1.2 0.563-1.52 0.961-0.266 0.293-0.465 0.707-0.598 1.239-0.429 1.226-0.668 1.882-0.722 1.961l0.043-0.04c1.066-1.171 2.25-2.132 3.558-2.878l0.719-0.762c0.828-0.852 1.574-1.375 2.242-1.559 0.426-0.133 1.332-0.199 2.719-0.199 3.039-0.082 5.293-0.043 6.758 0.117 2.801 0.293 5.187 1.414 7.16 3.36-0.051-1.704-0.051-2.852 0-3.438 2.828-0.242 4.895-0.387 6.203-0.441 2.586-0.078 4.637 0.039 6.156 0.359 1.016 0.215 2.176 1 3.481 2.359 1.094 1.176 2 2.403 2.722 3.684 0.504 0.906 0.758 2.117 0.758 3.637 0 2.082 0.039 3.336 0.121 3.761 0.161 0.907 0.493 1.762 1 2.559 0.399 0.563 1.012 1.254 1.84 2.082 0.321 0.32 1.149 0.879 2.481 1.68 1.117 0.664 1.851 1.265 2.199 1.801 1.148-0.161 2.812-1.254 5-3.282 1.172-1.066 2.652-2.48 4.441-4.238 0.934-0.773 2.293-1.934 4.078-3.48 1.575-1.254 3.082-2.149 4.52-2.68 0.562-0.188 2.094-0.414 4.602-0.68 2.054-0.187 3.464-0.601 4.238-1.242 0.535-0.426 0.906-1.238 1.121-2.441 0.105-0.664 0.199-1.559 0.281-2.68 0.106-0.957 0.028-2.492-0.242-4.598-0.238-1.972-0.266-3.508-0.078-4.601 0.16-1.039 0.598-2.239 1.32-3.598 0.399-0.773 1.024-1.894 1.879-3.363 0.32-0.586 0.84-1.571 1.559-2.957 0.722-1.149 1.468-1.934 2.242-2.36 0.984-0.562 2.023-0.75 3.117-0.562 1.227 0.215 2 0.84 2.32 1.883 0.321 0.984 0.282 2.093-0.117 3.32-0.16 0.559-0.601 1.57-1.32 3.039-0.508 1.039-0.817 2.25-0.922 3.641-0.051 0.691-0.051 1.972 0 3.84 0.348 0 0.602-0.016 0.762-0.043 0.558-0.106 1.359-0.332 2.398-0.68 0.906-0.238 1.695-0.172 2.36 0.203 0.562 0.316 1.027 0.945 1.402 1.879 0.398 0.906 0.746 1.453 1.039 1.641 0.215-0.481 0.492-0.989 0.84-1.52-0.321-0.242-0.613-0.586-0.879-1.043-0.242-0.48-0.387-0.934-0.442-1.359-0.105-0.211-0.585-0.371-1.441-0.481-2.824-0.265-4.586 0.188-5.277 1.36 0.426-1.731 0.984-3.106 1.679-4.118 0.664-0.961 1.653-1.453 2.961-1.48 0.746 0 2.012 0.012 3.797 0.039 0.133-0.691 0.133-1.531 0-2.52-0.078-0.531-0.211-1.359-0.398-2.48-0.266-2.531 0.387-5.16 1.961-7.879 0.558-0.988 1.437-2.293 2.64-3.922 0.907-1.465 1.371-2.918 1.399-4.359 0-1.094-0.028-1.867-0.082-2.321-0.133-1.011-0.399-1.664-0.797-1.957-0.402-0.32-1-0.468-1.801-0.441-0.801 0-1.332 0.172-1.601 0.52-0.426 0.48-0.598 1.519-0.52 3.121 0.188 1.707 0.254 2.797 0.199 3.277-0.105 1.281-0.437 2.043-1 2.281-0.238 0.11-1.094 0.149-2.558 0.121-1.36 0.051-2.161-0.402-2.399-1.359-0.375-1.469-0.816-2.414-1.32-2.84-0.988-0.855-2.961-0.844-5.922 0.039-2.879 0.824-4.57 1.758-5.078 2.801-0.215 0.453-0.32 1.117-0.32 2 0.078 0.957 0.121 1.641 0.121 2.039 0.023 0.773-0.043 1.426-0.203 1.961-0.079 0.293-0.332 0.906-0.758 1.84-0.586 2-1.039 3.519-1.36 4.558-0.562 1.895-1.336 3.254-2.32 4.082-1.441-0.882-1.906-3.613-1.402-8.203 0.082-0.824 0.453-1.89 1.121-3.199 0.746-1.437 1.199-2.519 1.359-3.238 0.453-2.11 0.719-3.84 0.801-5.199 0.027-0.27 0.082-1.043 0.16-2.321 0.027-1.203-0.094-1.906-0.359-2.121-0.293-0.238-0.922-0.254-1.883-0.039-1.012 0.293-1.625 0.465-1.84 0.52-1.25 0.347-2.184 0.746-2.797 1.199-0.695 0.508-1.269 1.308-1.722 2.398-0.024 0.055-0.227 0.684-0.598 1.883-0.215 0.692-0.547 1.266-1 1.719-0.508 0.508-1.016 0.828-1.52 0.961-0.429 0.105-1.043 0.133-1.84 0.078-0.054 0-0.414-0.133-1.082-0.398-0.48-0.188-0.824-0.188-1.039 0-0.32 0.265-0.441 1.199-0.359 2.8 0.133 1.68 0.184 2.692 0.16 3.039-0.027 1.039-0.16 1.84-0.402 2.399-0.211 0.508-0.68 1.148-1.399 1.922-0.64 0.879-1.16 1.519-1.562 1.918-0.719 0.718-1.41 0.949-2.078 0.679-0.293-2.183-0.172-5.023 0.359-8.519 0.641-4.133 0.961-6.946 0.961-8.438 0-0.48 0.039-1.269 0.117-2.359 0.055-1.016 0.016-1.789-0.117-2.32-0.027-0.188-0.16-0.336-0.402-0.442-0.266-0.133-0.414-0.281-0.438-0.441-0.082-0.344-0.109-0.84-0.082-1.481-0.133-0.851-0.254-2.09-0.359-3.718-0.32-1.118-1.266-1.52-2.84-1.2-0.082 0.774-0.105 1.758-0.082 2.961 0.027 1.305 0.043 2.293 0.043 2.957 0.078 1.016 0.133 1.817 0.16 2.403 0 1.121-0.203 1.851-0.601 2.199-0.426 0.375-0.918 0.426-1.481 0.16-0.906-0.426-1.48-0.652-1.719-0.68-0.48-3.066-0.816-7.199-1-12.402-0.027-1.918-0.707-3.559-2.043-4.918-1.492-1.519-3.625-2.934-6.398-4.238-1.867-0.856-4.281-1.778-7.238-2.762-0.297-0.105-0.563-0.199-0.801-0.281-0.133-0.028-0.254-0.067-0.36-0.117-0.027 0-0.066-0.016-0.121-0.043l-1.84-0.438c-0.129-0.004-0.262-0.015-0.399-0.043zm16.238 73.442c0.028-0.774 0.215-2.082 0.563-3.922 0.266-1.492 0.437-3.133 0.519-4.918 0.028-0.907 0.039-2.547 0.039-4.922 0-0.586 0.055-1.735 0.161-3.442-0.028-1.546-0.375-2.597-1.039-3.156-0.481-0.402-1.442-0.551-2.883-0.441-1.387 0.078-2.293-0.094-2.719-0.52-0.586-0.586-0.746-2.16-0.48-4.722 0.054-0.45 0.214-1.067 0.48-1.84 0.293-0.797 0.469-1.399 0.52-1.797 0.027-0.215 0.027-0.668 0-1.363-0.028-0.559 0-1.012 0.082-1.36 0.078-0.371 0.32-1.304 0.718-2.797 0.293-1.093 0.481-2.015 0.559-2.761 0.109-1.121 0.109-2.813 0-5.082 0.027-1.278 0.176-2.118 0.441-2.516 0.375-0.563 1.149-0.801 2.321-0.723 2.05 0.188 2.824 1.426 2.32 3.723-0.59 1.812-0.895 3.332-0.922 4.559 0 0.691-0.078 1.773-0.238 3.238-0.16 1.387-0.242 2.469-0.242 3.242-0.051 1.25-0.067 2.16-0.039 2.719 0.082 0.933 0.414 1.691 1 2.281 0.214 0.238 1.082 0.813 2.601 1.719 0.984 0.613 1.625 1.453 1.918 2.519 0.399 1.469 0.441 3.172 0.121 5.121-0.269 1.68-0.75 3.317-1.441 4.918-0.586 1.282-1.016 2.239-1.281 2.883-0.481 1.117-0.825 2.117-1.04 3-0.293 1.41-0.519 2.477-0.679 3.199-0.293 1.25-0.68 2.266-1.16 3.039l0.918 3.68c-0.821-0.508-1.196-1.695-1.118-3.558zm-146.68-42.481c-1.414 1.84-2.481 3.227-3.2 4.16 0.348 0.184 1.641 0.785 3.879 1.801 1.602 0.719 2.774 1.426 3.52 2.117 0.32-0.371 0.601-1.078 0.844-2.117 0.293-1.441 0.465-2.227 0.519-2.363 0.32-0.906 0.625-1.625 0.918-2.16 0.266-0.426 0.735-1.051 1.402-1.879 3.758-4.614 8.133-6.039 13.118-4.282 2.187 0.774 4 2.028 5.441 3.762 0.719 0.906 1.215 2.012 1.481 3.32 0.347 1.52 0.187 2.708-0.481 3.559-0.559 0.774-1.785 1.508-3.68 2.199-1.949 0.774-3.253 1.52-3.921 2.242-0.747 0.852-1.52 2.051-2.321 3.598-0.797 1.52-1.344 2.828-1.637 3.922 0.958-0.801 2.278-1.922 3.958-3.359 1.496-1.067 3.109-1.75 4.839-2.043 2.11-0.371 3.629-0.614 4.563-0.719 1.734-0.238 3.266-0.348 4.598-0.32 3.468 0.242 6.093 0.414 7.882 0.519 3.227 0.215 5.825 0.055 7.797-0.48 0.43-1.707-0.105-3.453-1.597-5.239-0.934-1.121-2.375-2.347-4.321-3.679-1.148-0.801-1.922-1.934-2.32-3.403-0.559-2.05-1.039-3.386-1.441-4-1.52-2.453-4.227-4.05-8.118-4.797-2.187-0.429-5.59-0.882-10.203-1.363-1.011-0.211-1.863-0.465-2.558-0.758h-0.039c-0.348 0.215-0.696 0.426-1.04 0.641l-3.16 2.238c-0.347 0.242-0.695 0.492-1.043 0.762-1.199 0.906-2.839 1.746-4.918 2.52-2.375 0.851-4.015 1.558-4.921 2.121-1.227 0.718-2.481 1.851-3.758 3.398-0.028 0.027-0.055 0.055-0.082 0.082zm85.922-20.879c-2.723 0.504-4.497 0.824-5.321 0.957-0.082 0-0.988 0.094-2.719 0.281-1.093 0.079-2.015 0.254-2.761 0.52-0.078 0.027-0.16 0.055-0.239 0.082l-0.761 0.316c-1.305 0.563-3 1.415-5.078 2.563h0.039c2.32 0.293 5.293 0.414 8.918 0.359 0.722-0.054 1.293-0.082 1.722-0.082 0.719-0.023 1.278 0.028 1.68 0.16 0.906 0.321 2.277 1.375 4.117 3.161 0.723 0.718 1.442 1.921 2.16 3.601 0.774 1.785 1.137 3.172 1.082 4.16 1.387 0.426 2.481 1.051 3.282 1.879 0.906 0.934 1.371 2.055 1.398 3.36-0.668 0.425-2.199 0.507-4.601 0.242-2.266-0.27-3.68-0.11-4.239 0.48 3.414 0.852 5.746 1.383 7 1.598 3.281 0.535 5.227 1.586 5.84 3.16 0.453 1.254 0.746 2.641 0.879 4.16l0.121 1.801c0 0.879-0.172 2.48-0.519 4.801-0.348 2.558-0.497 4.332-0.442 5.316 2.828-2.426 4.813-4.703 5.961-6.84 1.441-2.636 1.934-5.57 1.481-8.797-0.133-0.988-0.508-2.015-1.122-3.082-0.347-0.613-0.918-1.546-1.718-2.8-0.426-0.801-0.692-1.719-0.801-2.758-0.051-0.426-0.078-1.402-0.078-2.922 0-0.691 0.051-1.824 0.16-3.398 0.078-1.442 0.012-2.563-0.203-3.36-0.317-1.148-1.012-2.48-2.078-4-0.586-0.855-1.481-2.082-2.68-3.68-0.879-1.281-1.719-2.347-2.52-3.203l-0.441 0.883-0.121 0.039c1.227 1.309 2.547 3.172 3.961 5.602 0.851 1.437 1.375 2.84 1.562 4.199 0.184 1.332 0.09 2.813-0.281 4.441-0.215 0.93-0.43 1.532-0.64 1.797-0.348 0.453-0.922 0.508-1.719 0.16-0.586-0.238-1.028-0.773-1.321-1.597-0.16-0.481-0.359-1.227-0.601-2.242-0.801-2.399-1.719-4.399-2.758-6-0.988-1.575-2.43-3-4.32-4.282-0.695-0.476-1.121-0.824-1.281-1.035zm25-4.722c-0.08-0.692-0.12-1.372-0.12-2.04v-0.082c-2.078-0.105-3.867-0.144-5.359-0.117-0.559 0-1.094 0.028-1.601 0.078l1.48-0.039c1.602 0 2.789 0.149 3.562 0.442 0.77 0.32 1.454 0.906 2.04 1.758zm-77.082 25.519-3.719 1.84c0.265-1.598-0.586-3.145-2.559-4.637-1.336-1.043-3.015-1.949-5.043-2.722-0.183-0.079-1.558-0.2-4.117-0.36-1.894-0.133-2.906-0.64-3.043-1.519-0.238-1.387 0.641-2.188 2.641-2.399 0.48-0.054 1.933-0.027 4.359 0.078 2.535 0.16 4.828 1.243 6.883 3.243 1.437 1.41 2.973 3.57 4.598 6.476z" inkscape:connector-curvature="0"/>
      <path id="path18" style="fill-rule:evenodd;fill:#8d959e" d="m118.9 62.777c-0.988 1.117-1.894 1.945-2.722 2.48l-0.84 0.398-0.039 0.04-0.922 0.32c-1.039 0.402-1.719 0.933-2.039 1.601l-0.039 0.079c0.453 0.507 1.945 0.16 4.48-1.04 3.012-1.441 4.664-2.187 4.961-2.238 1.36-0.215 2.852-0.336 4.481-0.363 1.945-0.024 3.398 0.121 4.359 0.441 0.48 0.188 1.051 0.493 1.719 0.922 1.387 1.145 2.359 1.934 2.918 2.36 1.949 1.144 3.215 2.011 3.801 2.597l0.519 0.641c0.641 0.961 1.16 2.265 1.563 3.922l0.316 1.558c0.293 1.895 0.387 3.559 0.281 5h1.36c-0.559-1.121-0.801-2.773-0.719-4.961 0.055-1.226 0.148-2.972 0.281-5.238-0.027-1.094-0.226-2.055-0.601-2.879-0.239-0.562-0.774-1.387-1.598-2.48-0.856-1.067-1.496-1.801-1.922-2.203-1.973-1.946-4.359-3.067-7.16-3.36-1.465-0.16-3.719-0.199-6.758-0.117-1.387 0-2.293 0.066-2.723 0.199-0.664 0.184-1.414 0.707-2.238 1.559l-0.719 0.762zm94-6.243 0.317-1.64c0.933-3.758 2.574-7.614 4.922-11.559 0.425-0.746 0.961-1.867 1.597-3.359 0.696-1.547 1.227-2.668 1.602-3.36 0.375-0.695 1.082-1.679 2.121-2.961 1.012-1.253 1.707-2.226 2.078-2.917 0.535-0.989 1.055-2.442 1.563-4.36 0.558-2.187 1.011-3.683 1.359-4.48 0.984-2.403 1.227-4.11 0.719-5.121-0.453-0.934-1.907-1.985-4.36-3.161-3.84-1.839-7.679-3.226-11.519-4.16-5.629-1.386-9.496-2.492-11.602-3.32-3.121-1.199-7.199-1.785-12.238-1.758-7.629 0.027-11.828 0-12.602-0.082-2.054-0.187-5.238-0.891-9.558-2.117-4.11-1.149-7.254-1.774-9.442-1.883-3.574-0.187-5.679-0.277-6.32-0.277-2.48-0.055-4.586 0.023-6.32 0.238-0.16 0.027-0.348 0.051-0.559 0.078h-0.039c0.133 0.028 0.266 0.043 0.399 0.043l1.839 0.442c0.055 0.023 0.094 0.039 0.121 0.039 0.106 0.05 0.227 0.093 0.36 0.117 0.238 0.082 0.508 0.176 0.801 0.281 2.961 0.988 5.371 1.906 7.238 2.762 2.773 1.304 4.91 2.719 6.402 4.238 1.332 1.359 2.012 3 2.039 4.922 0.188 5.199 0.52 9.332 1 12.398 0.239 0.028 0.813 0.254 1.719 0.68 0.563 0.266 1.055 0.215 1.481-0.16 0.402-0.348 0.601-1.078 0.601-2.199-0.027-0.586-0.082-1.387-0.16-2.399 0-0.668-0.016-1.656-0.039-2.961-0.027-1.199 0-2.187 0.078-2.961 1.574-0.32 2.52 0.082 2.84 1.2 0.105 1.628 0.226 2.867 0.359 3.722-0.027 0.637 0 1.133 0.082 1.481 0.028 0.156 0.172 0.304 0.442 0.437 0.238 0.11 0.371 0.254 0.398 0.442 0.133 0.535 0.172 1.308 0.121 2.32-0.082 1.094-0.121 1.879-0.121 2.359 0 1.492-0.32 4.305-0.961 8.442-0.531 3.492-0.652 6.332-0.359 8.519 0.668 0.266 1.359 0.039 2.082-0.679 0.398-0.403 0.918-1.043 1.558-1.922 0.719-0.774 1.188-1.414 1.399-1.918 0.242-0.563 0.375-1.36 0.402-2.403 0.028-0.347-0.027-1.359-0.16-3.039-0.082-1.601 0.039-2.535 0.359-2.8 0.215-0.188 0.559-0.188 1.039 0 0.668 0.265 1.028 0.398 1.082 0.398 0.801 0.055 1.415 0.027 1.84-0.078 0.508-0.133 1.012-0.453 1.52-0.961 0.453-0.453 0.785-1.027 1-1.719 0.375-1.199 0.574-1.828 0.601-1.879 0.45-1.094 1.024-1.894 1.719-2.402 0.613-0.453 1.547-0.852 2.801-1.199 0.211-0.055 0.824-0.227 1.84-0.52 0.957-0.215 1.586-0.199 1.879 0.039 0.265 0.215 0.386 0.922 0.359 2.121-0.078 1.282-0.133 2.055-0.16 2.321-0.078 1.359-0.348 3.093-0.801 5.199-0.156 0.719-0.613 1.801-1.359 3.238-0.664 1.309-1.039 2.375-1.117 3.203-0.508 4.586-0.043 7.321 1.398 8.199 0.988-0.828 1.762-2.187 2.32-4.082 0.321-1.039 0.774-2.558 1.36-4.558 0.426-0.934 0.679-1.547 0.761-1.84 0.157-0.535 0.223-1.188 0.2-1.961 0-0.398-0.043-1.078-0.121-2.039 0-0.883 0.105-1.547 0.32-2 0.508-1.039 2.199-1.973 5.082-2.801 2.957-0.879 4.93-0.894 5.918-0.039 0.508 0.426 0.945 1.371 1.32 2.84 0.238 0.961 1.039 1.414 2.399 1.359 1.468 0.028 2.32-0.011 2.562-0.121 0.559-0.238 0.891-1 1-2.277 0.051-0.481-0.015-1.574-0.203-3.281-0.078-1.602 0.094-2.641 0.52-3.121 0.269-0.348 0.8-0.52 1.601-0.52 0.801-0.027 1.399 0.121 1.801 0.441 0.398 0.293 0.668 0.946 0.801 1.961 0.05 0.45 0.078 1.227 0.078 2.317-0.028 1.441-0.492 2.894-1.399 4.359-1.199 1.629-2.082 2.934-2.64 3.922-1.574 2.719-2.227 5.348-1.961 7.879 0.187 1.121 0.32 1.949 0.402 2.48 0.133 0.989 0.133 1.829 0 2.52-1.789-0.027-3.055-0.039-3.801-0.039-1.308 0.027-2.293 0.519-2.961 1.48-0.695 1.016-1.253 2.387-1.679 4.121 0.691-1.175 2.453-1.628 5.281-1.363 0.852 0.11 1.332 0.27 1.437 0.485 0.055 0.425 0.2 0.878 0.442 1.359 0.266 0.453 0.558 0.797 0.879 1.039 0.215 0.184 0.414 0.289 0.601 0.316zm-52.043 17.243c-0.078 1.863 0.297 3.05 1.121 3.558l-0.918-3.68c0.481-0.773 0.868-1.785 1.161-3.039 0.156-0.722 0.382-1.789 0.679-3.199 0.211-0.883 0.559-1.883 1.039-3 0.266-0.64 0.692-1.601 1.282-2.883 0.691-1.601 1.172-3.238 1.437-4.918 0.32-1.949 0.281-3.652-0.117-5.121-0.293-1.066-0.934-1.906-1.922-2.519-1.519-0.906-2.387-1.481-2.598-1.719-0.585-0.586-0.921-1.348-1-2.281-0.027-0.559-0.015-1.469 0.039-2.719 0-0.773 0.083-1.855 0.243-3.242 0.156-1.465 0.238-2.547 0.238-3.238 0.027-1.227 0.332-2.747 0.918-4.559 0.508-2.297-0.266-3.535-2.316-3.723-1.176-0.078-1.95 0.16-2.321 0.723-0.265 0.398-0.414 1.238-0.441 2.516 0.109 2.269 0.109 3.961 0 5.082-0.078 0.746-0.266 1.668-0.559 2.761-0.402 1.493-0.64 2.426-0.719 2.797-0.082 0.348-0.109 0.801-0.082 1.36 0.028 0.695 0.028 1.148 0 1.363-0.054 0.398-0.226 1-0.519 1.797-0.266 0.773-0.426 1.386-0.481 1.84-0.265 2.562-0.105 4.136 0.481 4.722 0.426 0.426 1.332 0.598 2.719 0.52 1.441-0.11 2.402 0.039 2.882 0.441 0.665 0.559 1.012 1.613 1.04 3.156-0.11 1.707-0.161 2.856-0.161 3.442 0 2.375-0.015 4.015-0.039 4.922-0.082 1.785-0.254 3.426-0.519 4.918-0.352 1.84-0.539 3.148-0.567 3.922zm-35.88-70.204v0.082c0 0.668 0.04 1.348 0.122 2.04 0.371 2.535 1.304 4.308 2.8 5.32 0.852 0.558 2 1.015 3.438 1.359 1.707 0.348 2.961 0.614 3.762 0.801 0.906 0.266 1.437 0.426 1.597 0.48 1.496 0.508 4.668 1.762 9.52 3.762 0.426-2.269 0.093-4.91-1-7.922-1.199-3.254-2.824-5.293-4.879-6.121-0.906-0.371-2.199-0.586-3.879-0.64-0.43 0.109-0.84 0.214-1.242 0.32l-3.52 0.641c-0.265 0.027-0.508 0.039-0.719 0.039h-1.761c-1.117 0-2.531-0.051-4.239-0.161zm-76.96 27.641c-1.625-2.906-3.161-5.066-4.598-6.48-2.055-2-4.348-3.079-6.883-3.239-2.426-0.105-3.879-0.132-4.359-0.082-2 0.215-2.879 1.016-2.641 2.403 0.137 0.879 1.149 1.386 3.043 1.519 2.559 0.16 3.934 0.281 4.117 0.36 2.028 0.773 3.707 1.679 5.043 2.718 1.973 1.492 2.824 3.039 2.559 4.641l3.719-1.84zm59.48-21.84-0.758 0.043c-1.547 0.133-3.547 0.426-6 0.879-0.215 0.051-0.43 0.094-0.64 0.121 0.16 0.211 0.586 0.559 1.277 1.039 1.894 1.278 3.336 2.707 4.32 4.278 1.043 1.601 1.961 3.601 2.762 6 0.238 1.015 0.441 1.761 0.601 2.242 0.293 0.828 0.731 1.359 1.317 1.601 0.801 0.344 1.375 0.293 1.723-0.16 0.21-0.269 0.425-0.867 0.64-1.801 0.371-1.625 0.465-3.109 0.278-4.441-0.184-1.359-0.708-2.758-1.559-4.199-1.414-2.426-2.734-4.293-3.961-5.602z" inkscape:connector-curvature="0"/>
      <g id="g20">
        <g id="g22">
          <g id="g28">
            <path id="path36" style="fill-rule:evenodd;fill:url(#linearGradient30)" d="m179.78 91.573c-0.215 0.161-0.426 0.336-0.64 0.524h-8.481c-1.117 0.027-1.801 0.066-2.039 0.117-0.266 0.082-0.801 0.414-1.601 1-1.09 0.988-2.532 2.188-4.317 3.602-1.574 1.199-3.148 2.586-4.723 4.16-1.226 0.531-2.507 0.398-3.839-0.403-1.145-0.691-2.067-1.703-2.758-3.039-0.375-0.718-1.055-2.812-2.043-6.277-0.774-2.75-1.746-4.656-2.918-5.723-0.481-0.425-1.133-0.691-1.961-0.8-0.957-0.106-1.586-0.25-1.879-0.438-0.508-0.266-0.801-0.734-0.879-1.402v-1.399c0.106-1.441 0.012-3.105-0.281-5l-0.32-1.558c-0.403-1.657-0.922-2.961-1.563-3.922l-0.519-0.641c-0.586-0.586-1.852-1.453-3.797-2.597-0.563-0.426-1.535-1.215-2.922-2.36-0.559-0.082-1.239-0.094-2.039-0.043 0.371-0.344 0.48-0.64 0.32-0.879-0.961-0.32-2.414-0.465-4.359-0.441-1.629 0.027-3.121 0.148-4.481 0.363-0.297 0.051-1.949 0.797-4.961 2.238-2.535 1.2-4.027 1.547-4.48 1.04l0.039-0.079c-0.481 0.133-1.227 0.227-2.238 0.278-1.016 0.027-1.723 0.094-2.122 0.203-2.132 0.531-4.187 1.68-6.16 3.437-2.215 1.95-3.386 3.934-3.519 5.961-0.028-0.507-0.039-1-0.039-1.48-0.055 0.105-0.121 0.199-0.2 0.281-0.8 1.414-1.402 2.453-1.8 3.121-0.723 1.172-1.586 1.891-2.602 2.156-2.48 0.668-4.226 1.227-5.238 1.684-1.762 0.824-3.227 1.973-4.402 3.438-1.415 1.789-1.614 3.828-0.598 6.121 0.586 1.332 1.851 3.121 3.801 5.359-1.469 0.266-3.43 0.148-5.883-0.359-1.36-0.266-3.32-0.735-5.879-1.399-1.465-0.347-2.922-0.894-4.359-1.64-1.016-0.536-2.36-1.36-4.04-2.481-1.015-0.695-2.269-1.562-3.761-2.601-1.227-0.692-2.641-1.04-4.239-1.04-4.8 0.055-8.386-0.066-10.761-0.359-1.094-0.133-2.961-0.601-5.602-1.402-2.293-0.664-4.199-1.012-5.719-1.039-2.375 0-3.718 0.027-4.039 0.082-1.199 0.211-2.293 0.89-3.281 2.039-1.039 1.226-1.519 2.492-1.437 3.801 0.05 0.906 0.465 2.277 1.238 4.117 0.398 0.933 0.625 1.508 0.68 1.722 0.082 0.481-0.067 1-0.442 1.559-0.371 0.559-1.133 0.988-2.277 1.281-1.121 0.293-1.84 0.707-2.16 1.239-0.106-0.586-0.227-1.145-0.36-1.68 0.321 1.414 0.664 3.359 1.039 5.84 0.321 1.922 0.707 3.519 1.161 4.8l1.039 1.602-0.399-0.082c0.184 0.398 0.387 0.746 0.598 1.039 1.121 1.496 3.16 2.883 6.121 4.16 2.641 1.094 5.039 1.762 7.199 2 1.922 0.215 4.668 0.321 8.242 0.321 3.84 0 6.586 0.066 8.239 0.199 1.625 0.136 3.933 0.187 6.921 0.16 3.145 0 5.438 0.043 6.879 0.121 2.133-0.027 3.868-0.039 5.2-0.039 2.558 0.027 4.238 0.266 5.039 0.719 1.093 0.718 1.828 1.187 2.199 1.402 0.562 0.293 1.48 0.465 2.762 0.52 2.105 0.078 4.906 0.371 8.398 0.878 4.082 0.586 6.867 0.946 8.363 1.079 2.453 0.242 4.813 0.16 7.078-0.239 1.309-0.215 3.559-0.773 6.762-1.679 5.758-1.653 13.145-3.332 22.16-5.039 4.453-0.586 7.84-1.043 10.157-1.36 4.214-0.59 7.507-1.441 9.882-2.562 1.067-0.504 2.106-1.321 3.118-2.438 0.586-0.668 1.414-1.695 2.48-3.082 1.762-2.078 4.176-5.226 7.242-9.441 2.348-3.012 4.68-5.453 7-7.321zm32.598-32.078c0.027-0.105 0.055-0.215 0.082-0.32 0.16-0.879 0.414-2.305 0.762-4.281l-0.321 1.64c-0.242 1.496-0.418 2.481-0.523 2.961zm-98 6.52 0.922-0.32c0.054-0.079 0.293-0.735 0.719-1.961-0.297 0.269-0.84 1.027-1.641 2.281zm0.961-0.36 0.84-0.398c0.828-0.535 1.734-1.363 2.722-2.48-1.308 0.746-2.496 1.707-3.562 2.878zm19.88-62.601c0.398-0.106 0.812-0.211 1.238-0.32 0.082-0.024 0.16-0.051 0.242-0.079-0.535 0.133-1.031 0.266-1.48 0.399z" inkscape:connector-curvature="0"/>
          </g>
        </g>
      </g>
      <path id="path38" style="fill-rule:evenodd;fill:#c0c6cc" d="m125.1 5.695c-0.586-0.852-1.27-1.438-2.043-1.758-0.77-0.293-1.957-0.442-3.559-0.442l-1.48 0.039-5.879 1.321c-0.559 0.265-1.067 0.547-1.52 0.84-0.133 0.109-0.266 0.199-0.398 0.281l-0.121 0.082c-0.215 0.183-0.426 0.371-0.641 0.558-0.027 0.028-0.055 0.051-0.082 0.079-0.156 0.16-0.317 0.32-0.477 0.48l-0.121 0.16c-0.265 0.32-0.508 0.695-0.719 1.121 0.797 0.852 1.637 1.922 2.52 3.199 1.199 1.602 2.094 2.829 2.68 3.68 1.066 1.524 1.758 2.856 2.078 4 0.215 0.801 0.281 1.922 0.199 3.363-0.105 1.571-0.16 2.707-0.16 3.399 0 1.519 0.027 2.492 0.082 2.922 0.105 1.039 0.375 1.957 0.801 2.758 0.8 1.253 1.371 2.187 1.718 2.8 0.614 1.067 0.989 2.094 1.122 3.078 0.453 3.227-0.043 6.161-1.481 8.801-1.148 2.133-3.133 4.414-5.961 6.84-0.055-0.984 0.094-2.758 0.442-5.32-0.215 0.215-0.321 0.336-0.321 0.359-0.054 0.188-0.066 0.496-0.043 0.922 0.028 0.398 0.016 0.691-0.039 0.879-0.664 2.187-1.16 3.535-1.48 4.043-0.664 0.797-1.094 1.344-1.278 1.641-0.32 0.476-0.48 1.199-0.48 2.156 0.051 0.617 0.078 1.082 0.078 1.402 0.027 0.613-0.027 1.067-0.16 1.36-0.238 0.507-0.613 0.839-1.117 1-0.297 0.105-0.817 0.265-1.563 0.48-2.531 1.117-4.492 3.277-5.879 6.48-1.015 2.372-1.535 4.813-1.558 7.321 0 0.476 0.011 0.972 0.039 1.476 0.133-2.023 1.304-4.011 3.519-5.957 1.973-1.761 4.028-2.906 6.16-3.441 0.399-0.106 1.106-0.172 2.122-0.199 1.011-0.055 1.757-0.149 2.238-0.282 0.32-0.664 1-1.199 2.039-1.597 0.801-1.254 1.348-2.016 1.641-2.281 0.132-0.536 0.335-0.95 0.601-1.243 0.32-0.398 0.824-0.718 1.52-0.957 1.117-0.375 1.867-0.64 2.238-0.8 0.508-0.243 1.109-0.708 1.801-1.403 0.8-0.797 2.132-1.531 4-2.199 2.109-0.691 3.574-1.227 4.398-1.598 1.602-0.718 3.508-1.133 5.723-1.242 0.265-0.027 2.238-0.039 5.918-0.039 1.176 0.078 2.082 0.121 2.719 0.121 1.148-0.055 1.949-0.359 2.402-0.922 0.348-0.398 0.504-1.148 0.48-2.238 0-0.613-0.043-1.441-0.121-2.48v-6.043c0.188-2.133 0.84-3.93 1.961-5.399 0.481-0.641 1.145-1.359 2-2.16 0.641-0.691 1-1.531 1.078-2.52 0.11-1.093 0.121-2.027 0.043-2.8-0.082-0.879-0.359-2-0.84-3.36-0.109-0.32-0.175-0.758-0.203-1.32 0-0.586-0.023-0.973-0.078-1.16-0.348-1.36-1.68-2.746-4-4.156-1.254-0.75-2.961-1.641-5.121-2.684-2.984-1.652-5.227-2.867-6.719-3.641l-0.718-0.32c-0.801-0.184-2.055-0.453-3.762-0.797-1.438-0.348-2.586-0.801-3.438-1.359-1.496-1.016-2.429-2.789-2.8-5.321v-0.003zm-41.879 9.441c-0.082 0.055-0.161 0.094-0.243 0.121-1.066 0.477-1.96 0.797-2.679 0.957-0.559 0.133-1.145 0.215-1.762 0.242l-3.517-0.082c-0.426-0.051-0.879-0.117-1.36-0.199l0.039 0.039 0.16 0.203c1.52 0.746 2.668 1.305 3.442 1.68 1.387 0.691 2.535 1.183 3.441 1.48 0.504 0.157 1.653 0.414 3.438 0.758 1.386 0.242 2.48 0.586 3.281 1.039 0.746 0.43 1.305 0.828 1.68 1.203 0.347 0.344 0.718 0.907 1.121 1.68 1.359 2.426 2.226 4.051 2.597 4.879 0.774 1.762 1.227 3.508 1.364 5.242 0.531-0.027 1.039 0.039 1.519 0.199 0.106 0.051 0.586 0.266 1.438 0.641 2.988 1.359 6.613 2.348 10.882 2.957 0.774 0 1.305 0.016 1.598 0.043 0.481 0.023 0.973 0.25 1.481 0.68 0.586 0.48 1.039 1.304 1.359 2.48-0.133-1.519-0.426-2.906-0.879-4.16-0.613-1.574-2.559-2.625-5.84-3.16-1.254-0.215-3.586-0.746-7-1.602 0.559-0.586 1.973-0.746 4.239-0.48 2.402 0.269 3.933 0.187 4.601-0.238-0.027-1.309-0.492-2.426-1.398-3.36-0.801-0.828-1.895-1.453-3.282-1.883 0.051-0.984-0.308-2.371-1.082-4.16-0.718-1.68-1.437-2.879-2.16-3.597-1.84-1.786-3.211-2.84-4.117-3.161-0.402-0.132-0.961-0.187-1.68-0.16-0.429 0-1 0.028-1.722 0.082-3.625 0.051-6.598-0.066-8.918-0.363h-0.039z" inkscape:connector-curvature="0"/>
      <g id="g40">
        <g id="g42">
          <g id="g48">
            <path id="path56" style="fill-rule:evenodd;fill:url(#linearGradient50)" d="m7.781 38.894c0.907-0.719 1.973-1.864 3.199-3.438 0.719-0.933 1.786-2.32 3.2-4.16-0.453 0.531-0.918 1.121-1.399 1.758-2.242 2.988-3.906 4.934-5 5.84-0.054 0.054-1.265 0.922-3.64 2.601-1.602 1.149-2.668 2.133-3.2 2.961-0.718 1.067-1.027 2.028-0.921 2.879 0.082 0.481 0.48 1.469 1.203 2.961 0.398 0.852 1.132 2.106 2.199 3.758 1.094 1.707 1.851 2.988 2.277 3.84 0.242 0.48 1.094 2.48 2.563 6 1.011 2.429 2.039 4.375 3.078 5.84 1.254 1.734 2 2.773 2.242 3.121 0.664 1.066 1.211 2.226 1.641 3.48 0.343 0.988 0.785 2.895 1.316 5.719 0.481 2.453 1.027 4.336 1.641 5.641 0.535 1.121 1.562 2.8 3.082 5.039 1.437 2.109 2.437 3.839 3 5.203 0.078 0.183 0.16 0.398 0.238 0.636l0.402 1.442c0.133 0.535 0.254 1.094 0.36 1.68 0.32-0.532 1.039-0.946 2.16-1.239 1.144-0.293 1.906-0.722 2.277-1.281 0.375-0.559 0.524-1.078 0.442-1.559-0.055-0.214-0.282-0.789-0.68-1.722-0.773-1.84-1.188-3.211-1.238-4.117-0.082-1.309 0.398-2.575 1.437-3.801 0.988-1.149 2.082-1.828 3.281-2.039 0.321-0.055 1.664-0.082 4.039-0.082 1.52 0.027 3.426 0.375 5.719 1.039 2.641 0.801 4.508 1.269 5.602 1.402 2.375 0.293 5.961 0.414 10.761 0.359 1.598 0 3.012 0.348 4.239 1.04 1.492 1.039 2.746 1.906 3.761 2.601 1.68 1.121 3.024 1.945 4.04 2.481 1.437 0.746 2.894 1.293 4.359 1.64 2.559 0.664 4.519 1.133 5.879 1.399 2.453 0.507 4.414 0.625 5.883 0.359-1.95-2.238-3.215-4.027-3.801-5.359-1.016-2.293-0.817-4.332 0.598-6.121 1.175-1.465 2.64-2.614 4.402-3.438 1.012-0.457 2.758-1.016 5.238-1.684 1.016-0.265 1.879-0.984 2.602-2.156 0.398-0.668 1-1.707 1.8-3.121 0.079-0.082 0.145-0.172 0.2-0.281 0.027-2.508 0.547-4.945 1.558-7.32 1.387-3.2 3.348-5.36 5.879-6.481 0.75-0.211 1.27-0.371 1.563-0.48 0.504-0.161 0.879-0.493 1.117-1 0.137-0.293 0.187-0.746 0.16-1.36 0-0.316-0.027-0.785-0.078-1.398 0-0.961 0.16-1.68 0.48-2.16 0.188-0.293 0.614-0.84 1.282-1.641 0.316-0.508 0.812-1.852 1.476-4.039 0.055-0.188 0.067-0.481 0.043-0.879-0.027-0.43-0.015-0.734 0.039-0.922 0-0.027 0.106-0.144 0.321-0.359 0.347-2.321 0.519-3.918 0.519-4.801l-0.12-1.806c-0.32-1.172-0.773-2-1.359-2.48-0.508-0.426-1-0.653-1.481-0.68-0.293-0.023-0.824-0.039-1.598-0.039-4.269-0.613-7.894-1.602-10.882-2.961-0.852-0.371-1.332-0.586-1.438-0.641-0.48-0.156-0.988-0.226-1.519-0.199-0.137-1.734-0.59-3.48-1.364-5.238-0.371-0.828-1.238-2.453-2.597-4.883-0.403-0.773-0.774-1.332-1.121-1.68-0.375-0.371-0.934-0.773-1.68-1.199-0.801-0.453-1.895-0.801-3.281-1.039-1.785-0.347-2.934-0.601-3.438-0.762-0.906-0.293-2.054-0.785-3.441-1.48-0.774-0.371-1.922-0.934-3.442-1.68l-0.16-0.199c-0.238-0.027-0.476-0.066-0.719-0.121-0.507-0.105-2.906-0.707-7.199-1.801-5.336-1.332-10.105-1.797-14.32-1.398-5.973 0.535-12.082 2.746-18.32 6.64 0.695 0.293 1.547 0.547 2.558 0.758 1.84-0.238 3.949-0.453 6.321-0.637 3.175-0.214 5.519-0.269 7.042-0.16 2.614 0.211 4.774 0.879 6.477 2 2.32 0.957 4.094 1.719 5.32 2.278 2.215 1.015 3.321 2.254 3.321 3.722 0 0.692-0.078 1.785-0.239 3.278-0.16 1.441-0.242 2.547-0.242 3.32 0.028 1.336 0.254 2.254 0.68 2.762 0.297 0.371 1.137 0.933 2.523 1.679 1.703 0.907 3.758 2.239 6.16 4 3.094 2.293 5.067 3.719 5.918 4.282 1.067 0.664 1.84 1.226 2.321 1.679 0.613 0.614 1.148 1.387 1.601 2.321-1.121 0.078-2.707-0.067-4.761-0.442-2.426-0.426-4.055-0.668-4.879-0.719-1.469-0.082-3.735-0.066-6.801 0.04-3.016 0.105-5.281 0.105-6.801 0-1.012-0.079-2.32-0.52-3.918-1.321-1.629-0.824-2.933-1.293-3.922-1.398-3.304-0.403-7.238-0.403-11.8 0-2.641 0.215-4.708 0.574-6.2 1.078-2.078 0.723-3.773 1.867-5.078 3.441-1.519 1.84-3.215 3.266-5.082 4.282-2.133 1.144-4 1.957-5.598 2.441-2.054 0.613-4.054 0.812-6 0.598-0.187-1.414-0.042-3.465 0.438-6.161 0.453-2.691 0.602-4.746 0.441-6.16-0.105-0.984-0.308-1.961-0.601-2.918-0.371-1.199-0.828-2.066-1.36-2.601-0.507-0.531-1.199-0.852-2.078-0.957-0.187-0.028-1-0.043-2.441-0.043l0.039-0.117c0.535-0.352 0.961-0.668 1.281-0.965zm101-31.559c-0.508 0.586-0.894 1.254-1.16 2l-0.879 0.082 0.758-0.043 0.121-0.039 0.441-0.879c0.211-0.426 0.454-0.801 0.719-1.121zm1.84-1.64h-0.039c-0.137 0.109-0.254 0.199-0.359 0.281 0.132-0.082 0.265-0.172 0.398-0.281z" inkscape:connector-curvature="0"/>
          </g>
        </g>
      </g>
      <g id="g58">
        <g id="g60">
          <g id="g66">
            <path id="path74" style="fill-rule:evenodd;fill:url(#linearGradient68)" d="m27.102 110.66-0.082-0.082 0.203 0.481c0.105 0.297 0.226 0.562 0.359 0.801l0.117 0.32h0.043l0.399 0.082-1.039-1.602z" inkscape:connector-curvature="0"/>
          </g>
        </g>
      </g>
      <g id="g76">
        <g id="g78" clip-path="url(#clipPath80)">
          <g id="g84" transform="matrix(.8 0 0 .8 -.019198 -19.226)">
            <g id="g106" mask="url(#mask98)">
              <path id="path114" style="fill-rule:evenodd;fill:url(#radialGradient108)" d="m179.22 92.097 2.043-1.563c0.64-0.453 2.718-1.718 6.238-3.8 2.535-1.493 4.48-2.907 5.84-4.239 0.961-0.933 1.976-2.16 3.043-3.679 1.492-2.188 2.398-3.481 2.718-3.879 0.532-0.668 2.825-2.481 6.879-5.442 3.254-2.375 4.989-4.453 5.2-6.238l-0.278 0.039 0.918-1.801 0.082-0.121 0.239-0.679v-0.04l0.519-2.32v-0.121l0.281-1.641v-0.078l0.321-1.601c0.933-3.758 2.57-7.614 4.918-11.559 0.425-0.746 0.961-1.867 1.601-3.359 0.692-1.547 1.227-2.668 1.598-3.36 0.375-0.695 1.082-1.683 2.121-2.961 1.016-1.253 1.707-2.226 2.082-2.921 0.531-0.985 1.051-2.438 1.559-4.36 0.558-2.183 1.011-3.679 1.359-4.48 0.988-2.399 1.226-4.106 0.719-5.117-0.453-0.934-1.907-1.989-4.36-3.161-3.84-1.839-7.679-3.226-11.519-4.16-5.625-1.386-9.492-2.492-11.602-3.32-3.117-1.199-7.199-1.785-12.238-1.758-7.629 0.024-11.828 0-12.602-0.082-2.05-0.187-5.238-0.894-9.558-2.121-4.106-1.145-7.254-1.773-9.442-1.879-3.57-0.187-5.679-0.281-6.316-0.281-2.481-0.051-4.59 0.027-6.32 0.242l-0.602 0.078c-1.199 0.188-3.293 0.774-6.281 1.762l-4.52 1.32-1.238 0.199h-0.32c-0.403 0.079-0.828 0.118-1.282 0.118l-9.64-0.278c-0.453-0.054-0.918-0.054-1.399 0l-1.882 0.039-0.04 0.039-2.558 0.282-2.481 0.679-1.601 0.719-1.039 0.68c-0.426 0.269-0.746 0.535-0.961 0.801l-0.52 0.519-0.398 0.52c-0.375 0.535-0.652 1.066-0.84 1.601l-12.84 2.039c-0.082 0-0.988 0.094-2.722 0.281-1.094 0.079-2.012 0.254-2.758 0.52l-1.039 0.398-0.203 0.122c-1.094 0.48-2.704 1.293-4.84 2.441l-2.918 1.078-1.641 0.281-3.199-0.039-0.199-0.043-0.68-0.078-0.16-0.039-0.762-0.082c-1.121-0.187-2.465-0.492-4.039-0.918-0.906-0.242-2.187-0.574-3.84-1-5.336-1.336-10.105-1.801-14.32-1.402-7.629 0.695-15.496 4.121-23.602 10.281-1.199 0.906-2.84 1.746-4.918 2.52-2.375 0.851-4.015 1.558-4.922 2.121-0.187 0.078-0.492 0.277-0.917 0.597l-0.282 0.2-1.679 1.562-6.559 8-1.359 1.16-0.121 0.078-0.559 0.442c-1.387 0.961-2.43 1.695-3.121 2.199-1.176 0.883-2 1.68-2.481 2.402-0.718 1.067-1.027 2.024-0.922 2.879 0.083 0.481 0.481 1.469 1.204 2.961 0.398 0.852 1.132 2.106 2.199 3.758 1.094 1.707 1.851 2.988 2.277 3.84 0.242 0.48 1.094 2.48 2.563 6 1.011 2.429 2.039 4.375 3.078 5.84 1.254 1.734 2 2.773 2.242 3.121 0.664 1.066 1.211 2.226 1.641 3.48 0.343 0.988 0.785 2.895 1.32 5.719 0.476 2.453 1.023 4.336 1.637 5.641 0.535 1.121 1.562 2.8 3.082 5.039 1.437 2.109 2.437 3.839 3 5.203 0.48 1.144 1.039 3.785 1.679 7.918 0.559 3.492 1.36 5.949 2.399 7.359 1.121 1.492 3.16 2.883 6.121 4.16 2.641 1.094 5.039 1.762 7.199 2 1.922 0.215 4.668 0.321 8.242 0.321 3.84 0 6.586 0.066 8.239 0.199 1.625 0.136 3.933 0.187 6.921 0.16 3.145 0 5.438 0.043 6.879 0.121 2.133-0.027 3.868-0.039 5.2-0.039 2.558 0.027 4.242 0.266 5.039 0.719 1.093 0.718 1.828 1.187 2.203 1.402 0.558 0.293 1.476 0.465 2.758 0.52 2.105 0.078 4.906 0.371 8.402 0.878 4.078 0.586 6.863 0.946 8.359 1.079 2.453 0.242 4.813 0.16 7.078-0.239 1.309-0.215 3.563-0.773 6.762-1.679 5.758-1.653 13.145-3.336 22.16-5.039 4.453-0.586 7.84-1.043 10.16-1.364 4.211-0.586 7.504-1.437 9.879-2.558 1.067-0.508 2.106-1.321 3.121-2.442 0.586-0.664 1.415-1.691 2.481-3.078 1.57-1.867 3.73-4.695 6.476-8.48 2.536-3.305 4.922-5.895 7.161-7.758z" inkscape:connector-curvature="0"/>
            </g>
          </g>
        </g>
      </g>
    </g>
  </g>
<metadata><rdf:RDF><cc:Work><dc:format>image/svg+xml</dc:format><dc:type rdf:resource="http://purl.org/dc/dcmitype/StillImage"/><cc:license rdf:resource="http://creativecommons.org/licenses/publicdomain/"/><dc:publisher><cc:Agent rdf:about="http://openclipart.org/"><dc:title>Openclipart</dc:title></cc:Agent></dc:publisher></cc:Work><cc:License rdf:about="http://creativecommons.org/licenses/publicdomain/"><cc:permits rdf:resource="http://creativecommons.org/ns#Reproduction"/><cc:permits rdf:resource="http://creativecommons.org/ns#Distribution"/><cc:permits rdf:resource="http://creativecommons.org/ns#DerivativeWorks"/></cc:License></rdf:RDF></metadata></svg>
